<svg xmlns="http://www.w3.org/2000/svg" width="600" height="600"><rect width="100%" height="100%" style="fill:#fed000"/><path d="M218.774 825.142c-2.162-.25-4.333-1.636-6.75-4.312-3.076-3.405-3.563-4.623-3.563-8.908 0-4.314.439-5.393 3.358-8.247 1.847-1.806 11.185-7.508 20.75-12.672 27.14-14.652 42.68-25.159 62.392-42.185 12.5-10.797 33.164-32.062 45.138-46.452 17.13-20.585 28.575-33.376 31.926-35.675 7.768-5.33 15.44-8.13 23.57-8.6 12.574-.729 20.433 1.86 38.747 12.763 13.412 7.984 28.013 15.292 35.745 17.89 16.686 5.608 38.868 7.723 49.974 4.766 6.174-1.644 13.161-5.617 17.461-9.928 4.8-4.812 6.891-10.177 6.917-17.744.028-8.33-3.174-15.139-10.01-21.285-10.026-9.014-19.95-11.813-50.213-14.161-34.494-2.677-55.733-7.396-78.755-17.497-25.295-11.098-48.834-31.628-65.64-57.247-4.598-7.01-8.36-12.948-8.36-13.197 0-.25-1.564-3.74-3.475-7.756-10.24-21.52-14.392-38.22-15.242-61.303-.855-23.199 1.79-43.085 8.239-61.948 2.644-7.733 9.264-22.352 13.043-28.799 1.889-3.223 3.435-6.066 3.435-6.318 0-1.844 16.25-21.927 24.901-30.774 20.523-20.987 38.921-33.238 66.125-44.031 35.971-14.272 77.052-17.571 112.874-9.066 5.72 1.358 10.563 2.305 10.764 2.105s-.62-3.1-1.823-6.443c-1.88-5.225-2.722-6.32-6.001-7.798-5.283-2.382-13.892-11.745-17.406-18.928-2.564-5.242-2.929-7.075-2.89-14.51.04-7.658.39-9.205 3.5-15.432 2.766-5.539 4.706-7.876 9.715-11.703 7.48-5.716 12.218-7.263 22.314-7.286 13.659-.032 24.486 7.268 31.045 20.93 2.398 4.996 2.88 7.28 2.88 13.636.001 4.394-.705 9.823-1.663 12.79-1.631 5.05-1.62 5.211.527 7.865 1.206 1.49 4.442 6.145 7.192 10.345l5 7.635 13.723.465c9.346.317 13.968.115 14.492-.635.423-.605 3.26-5.262 6.305-10.348l5.535-9.247-2.193-6.014c-3.14-8.613-2.415-21.467 1.63-28.9 13.919-25.573 51.028-24.915 63.049 1.117 2.566 5.559 2.903 7.399 2.89 15.792-.012 8.332-.354 10.196-2.782 15.166-2.815 5.76-13.654 17.049-17.56 18.288-1.579.501-2.573 3.162-5.078 13.588L681.41 307.9l7.06 9.246c12.912 16.91 17.928 30.286 18.733 49.961.603 14.765-1.412 25.841-7.063 38.814-10.103 23.193-31.604 42.86-55.748 50.995-26.328 8.869-53.159 5.103-84.926-11.92-21.884-11.726-32.461-15.103-47.306-15.103-18.1 0-31.63 6.696-37.724 18.67-3.27 6.425-3.401 16.685-.3 23.479 4.02 8.807 12.609 15.26 24.476 18.391 2.828.746 12.388 1.844 21.244 2.44 28.426 1.913 38.843 3.036 51.104 5.512 51.444 10.389 91.509 36.495 117.88 76.81 7.915 12.098 15.674 31.244 19.15 47.25 1.946 8.958 3.682 34.07 2.934 42.448-3.243 36.353-15.033 66.855-35.908 92.898-8.88 11.08-24.35 25.186-36.806 33.563-6.463 4.346-11.75 8.27-11.75 8.72s23.19.819 51.532.819c56.886 0 56.654-.024 60.442 6.19 1.11 1.82 2.02 5.05 2.022 7.177.003 3.167-.705 4.577-3.908 7.78l-3.912 3.911-255.338-.22c-140.436-.121-256.772-.386-258.525-.588m270.858-96.905c1.006-.91 1.829-2.925 1.829-4.477 0-3.268-2.651-5.32-8.105-6.274-3.348-.586-21.804-6.437-31.704-10.052-6.672-2.436-15.763-7.21-26.5-13.916-13.783-8.61-14.756-9.073-16.613-7.915-2.434 1.519-3.996 5.33-3.15 7.683.82 2.283 15.903 12.834 25.572 17.888 14.412 7.533 23.252 10.97 44 17.1 6.791 2.008 12.427 1.993 14.67-.037m171.83-141.346c1.1-1.1 2-2.958 2-4.128 0-2.485-8.254-13.962-13.427-18.669-22.351-20.34-41.368-31.106-69.073-39.107-13.06-3.772-33.536-6.784-55-8.092-21.567-1.314-32.268-3.042-39.992-6.458-6.9-3.052-9.099-3.18-10.473-.612-5.616 10.493 10.06 16.83 45.965 18.578 33.25 1.619 58.031 7.023 80.607 17.577 20.637 9.648 34.351 20.772 47.26 38.33 2.847 3.875 3.888 4.58 6.75 4.58 2.05 0 4.17-.787 5.383-2M422.64 343.965c5.943-4.675 25.687-12.179 42.82-16.275 8.53-2.038 12.152-2.282 35.441-2.379 25.08-.104 25.986-.176 27.318-2.182 1.182-1.78 1.154-2.506-.2-5.126-2.576-4.979-4.633-5.526-22.329-5.939-30.183-.703-54.621 4.074-79.15 15.473-11.794 5.48-16.08 8.654-16.08 11.906 0 5.652 7.298 8.362 12.18 4.522m124.845-17.638c.537-1.411.976-2.986.976-3.5 0-1.482-3.85-4.935-5.5-4.935-1.939 0-5.5 3.561-5.5 5.5 0 2.347 3.74 5.5 6.524 5.5 1.79 0 2.809-.747 3.5-2.565m220.58 495.523c-4.052-3.558-5.217-7.572-3.61-12.44 1.717-5.205 5.263-7.518 11.522-7.518 4.58 0 5.642.405 8.365 3.19 2.635 2.695 3.119 3.95 3.119 8.1 0 4.25-.457 5.366-3.4 8.31-2.874 2.873-4.107 3.4-7.966 3.4-3.66 0-5.251-.603-8.03-3.042" style="fill:#000" transform="matrix(.5 0 0 .5 45.77 43.908)"/></svg>